<svg xmlns="http://www.w3.org/2000/svg" version="1.1" xmlns:xlink="http://www.w3.org/1999/xlink" xmlns:svgjs="http://svgjs.dev/svgjs" width="2000" height="1999" viewBox="0 0 2000 1999"><g transform="matrix(1,0,0,1,-0.431486880466764,-0.4312711370263287)"><svg viewBox="0 0 343 343" data-background-color="#ffffff" preserveAspectRatio="xMidYMid meet" height="1999" width="2000" xmlns="http://www.w3.org/2000/svg" xmlns:xlink="http://www.w3.org/1999/xlink"><g id="tight-bounds" transform="matrix(1,0,0,1,0.0740000000000407,0.07400000000001228)"><svg viewBox="0 0 342.85155851775386 342.85155851775386" height="342.85155851775386" width="342.85155851775386"><g><svg></svg></g><g><svg viewBox="0 0 342.85155851775386 342.85155851775386" height="342.85155851775386" width="342.85155851775386"><g><path d="M0 171.426c0-94.676 76.75-171.426 171.426-171.426 94.676 0 171.426 76.75 171.426 171.426 0 94.676-76.75 171.426-171.426 171.426-94.676 0-171.426-76.75-171.426-171.426zM171.426 327.816c86.372 0 156.391-70.018 156.39-156.39 0-86.372-70.018-156.391-156.39-156.391-86.372 0-156.391 70.018-156.391 156.391 0 86.372 70.018 156.391 156.391 156.39z" data-fill-palette-color="tertiary" fill="#0a609c" stroke="transparent"></path><ellipse rx="164.56874808852186" ry="164.56874808852186" cx="171.42577925887693" cy="171.42577925887693" fill="#0a609c" stroke="transparent" stroke-width="0" fill-opacity="1" data-fill-palette-color="tertiary"></ellipse></g><g transform="matrix(1,0,0,1,64.84655864529837,88.0643792130474)"><svg viewBox="0 0 213.1584412271571 166.72280009165905" height="166.72280009165905" width="213.1584412271571"><g><svg viewBox="0 0 213.1584412271571 166.72280009165905" height="166.72280009165905" width="213.1584412271571"><g><svg viewBox="0 0 213.1584412271571 166.72280009165905" height="166.72280009165905" width="213.1584412271571"><g><svg viewBox="0 0 213.1584412271571 166.72280009165905" height="166.72280009165905" width="213.1584412271571"><g id="textblocktransform"><svg viewBox="0 0 213.1584412271571 166.72280009165905" height="166.72280009165905" width="213.1584412271571" id="textblock"><g><svg viewBox="0 0 213.1584412271571 166.72280009165905" height="166.72280009165905" width="213.1584412271571"><g transform="matrix(1,0,0,1,0,0)"><svg width="213.1584412271571" viewBox="0.45 -29.6 62.199999999999996 48.650000000000006" height="166.72280009165905" data-palette-color="#ffffff"><path d="M13.55-2.9L13.55-2.9Q13.7-2.9 13.7-2.6 13.7-2.3 13-1.6L13-1.6 12.5-0.85Q11.15 1.2 10.53 1.55 9.9 1.9 9.53 1.9 9.15 1.9 8.38 1.73 7.6 1.55 7.58 1.35 7.55 1.15 7.55 0.95L7.55 0.95Q7.55-1.5 12-10.1L12-10.1Q10.8-9.95 10.18-9.95 9.55-9.95 9.13-10.33 8.7-10.7 8.7-11.3 8.7-11.9 9.75-12.4 10.8-12.9 11.38-12.9 11.95-12.9 12.35-12.43 12.75-11.95 12.85-11.95L12.85-11.95 13-11.95Q14.05-13.85 14.9-15.45 15.75-17.05 15.75-17.53 15.75-18 15.6-18.25L15.6-18.25Q15.9-19.7 18.07-21.95 20.25-24.2 22.05-24.2L22.05-24.2Q22.85-24.2 24-23.58 25.15-22.95 25-21.95L25-21.95Q24.65-22.2 24.35-22.2L24.35-22.2Q20.95-22.2 15-12L15-12Q16.65-12.15 18.45-12.45L18.45-12.45Q24.45-13.2 25.25-13.2 26.05-13.2 26.28-13.18 26.5-13.15 26.68-13.05 26.85-12.95 26.9-12.85L26.9-12.85Q26.95-12.55 25.75-12.15L25.75-12.15Q22.85-11.2 14-10.25L14-10.25Q9.8-2.65 9.8-0.9L9.8-0.9Q9.8-0.05 10.53-0.28 11.25-0.5 11.8-1.2L11.8-1.2Q13.1-2.9 13.55-2.9ZM33.1-26.7L33.1-26.7Q34.55-28.3 35.85-28.3L35.85-28.3Q36.45-28.3 36.8-28 37.15-27.7 37.15-27.4 37.15-27.1 36.85-26.8 36.55-26.5 35.7-25.88 34.85-25.25 34.35-24.75L34.35-24.75Q31.95-22.4 31.95-20.7L31.95-20.7Q31.95-19.95 32.27-19.45 32.6-18.95 32.2-18.82 31.8-18.7 31.45-19.15L31.45-19.15Q31-19.45 31-21.15L31-21.15Q31-23.4 31.8-24.9L31.8-24.9Q31.9-25.05 32.13-25.43 32.35-25.8 32.5-25.95L32.5-25.95Q32.15-25.95 30.63-25.95 29.1-25.95 24.58-26.35 20.05-26.75 17.75-26.75 15.45-26.75 14.2-26.45L14.2-26.45Q9.45-25.8 6.03-23.83 2.6-21.85 1.95-18.85L1.95-18.85Q1.85-18.55 1.85-18.13 1.85-17.7 2.13-17.1 2.4-16.5 2.8-16.15 3.2-15.8 4.03-15.3 4.85-14.8 5.13-14.58 5.4-14.35 5.23-14.2 5.05-14.05 4.88-14.05 4.7-14.05 4.5-14.1L4.5-14.1Q2.8-14.6 1.63-15.98 0.45-17.35 0.45-18.28 0.45-19.2 0.7-19.85L0.7-19.85Q0.7-20.4 0.75-20.65L0.75-20.65Q1.5-24.2 5.3-26.15L5.3-26.15Q9.85-28.5 16.4-28.5L16.4-28.5Q20-28.5 25.25-27.65 30.5-26.8 33.1-26.7ZM45.85-25.5L45.85-25.5Q46.45-26.6 46.45-27.2L46.45-27.2Q46.45-28.25 45.6-28.25L45.6-28.25Q44.9-28.25 43.85-27.45L43.85-27.45Q39.85-24.35 36.1-17.65L36.1-17.65Q33.1-12.25 31.7-8.4L31.7-8.4Q35.15-10.75 39.42-16.05 43.7-21.35 45.85-25.5ZM30.95-6.4L30.95-6.4Q30.35-4.7 30.3-4.13 30.25-3.55 30.25-2.58 30.25-1.6 30.75-0.8L30.75-0.8Q31.6 0.55 33.6-0.6L33.6-0.6Q35.1-1.4 37.4-3.53 39.7-5.65 40.95-7.4L40.95-7.4Q41.05-7.55 41.25-7.55L41.25-7.55Q41.7-7.55 41.5-6.9L41.5-6.9Q40.75-5.55 38.72-3.45 36.7-1.35 35.05-0.13 33.4 1.1 31.75 1.1L31.75 1.1Q27.95 1.1 27.95-2.6L27.95-2.6Q27.95-2.75 27.95-2.9L27.95-2.9Q28.15-6.4 31.5-13.48 34.85-20.55 37.55-24.15L37.55-24.15 39.1-26.1Q39.65-26.75 40.7-27.7L40.7-27.7Q42.7-29.6 44.82-29.6 46.95-29.6 47.7-28.3L47.7-28.3Q47.95-27.85 47.95-27 47.95-26.15 47.2-24.6L47.2-24.6Q42.05-15.65 30.95-6.4ZM38.9 19.05L38.9 19.05Q38.5 19.05 37.9 18.9L37.9 18.9Q35.35 18.25 35.35 16.23 35.35 14.2 37.97 11.15 40.6 8.1 49.05 2.5L49.05 2.5Q53.75-7.1 55-10.95L55-10.95Q54.4-10.25 52.65-7.93 50.9-5.6 49.55-3.98 48.2-2.35 46.3-0.9 44.4 0.55 42.8 0.55 41.2 0.55 40.32-0.18 39.45-0.9 39.35-1.7 39.25-2.5 39.25-3.05L39.25-3.05Q39.25-4.9 40.25-6.75L40.25-6.75Q41.75-9.8 44.3-12L44.3-12Q45.25-12.9 45.97-12.9 46.7-12.9 47.3-12.45L47.3-12.45Q47.95-11.75 47.7-11.25L47.7-11.25Q45.8-10.15 43.35-7L43.35-7Q42.05-5.3 41.55-2.7L41.55-2.7Q41.5-2.35 41.5-1.83 41.5-1.3 41.92-0.98 42.35-0.65 42.8-0.65L42.8-0.65Q44.35-0.65 46.05-2.3 47.75-3.95 49.3-5.78 50.85-7.6 52.82-10.15 54.8-12.7 55.42-13.5 56.05-14.3 56.7-14.3L56.7-14.3Q57.5-14.3 58.35-13.85 59.2-13.4 59.07-13.15 58.95-12.9 56.52-7.48 54.1-2.05 53 0.3L53 0.3Q54.2-0.35 57.07-2.78 59.95-5.2 61.95-7.7L61.95-7.7Q62.45-8.3 62.6-7.8L62.6-7.8Q62.65-7.7 62.65-7.48 62.65-7.25 62.35-6.85L62.35-6.85Q60.8-4.8 57.4-1.7 54 1.4 52 2.5L52 2.5Q47.75 11.25 46.3 13.5L46.3 13.5Q42.55 19.05 38.9 19.05ZM48.1 4.4L48.1 4.4Q42.1 8.9 39.52 11.5 36.95 14.1 36.95 15.98 36.95 17.85 38.25 17.85L38.25 17.85Q39.25 17.85 40.55 16.82 41.85 15.8 43.05 14.1 44.25 12.4 44.87 11.18 45.5 9.95 46.6 7.58 47.7 5.2 48.1 4.4Z" opacity="1" transform="matrix(1,0,0,1,0,0)" fill="#ffffff" class="wordmark-text-0" data-fill-palette-color="quaternary" id="text-0"></path></svg></g></svg></g></svg></g></svg></g><g></g></svg></g></svg></g></svg></g></svg></g><defs></defs></svg><rect width="342.85155851775386" height="342.85155851775386" fill="none" stroke="none" visibility="hidden"></rect></g></svg></g></svg>